# MagicaVoxel @ Ephtracy

# group
o 

# material
mtllib collectable.mtl
usemtl palette

# normals
vn -1 0 0
vn 1 0 0
vn 0 0 1
vn 0 0 -1
vn 0 -1 0
vn 0 1 0

# texcoords
vt 0.205078 0.5
vt 0.208984 0.5

# verts
v -1.2 0.1 0.4
v -1.2 0.1 -0.1
v -1.2 0.1 -0.2
v -1.2 0.6 0.1
v -1.2 0.6 -0.1
v -1.2 0.7 0.4
v -1.2 0.7 0.1
v -1.2 0.7 -0.2
v -1.2 2.9 0.4
v -1.2 2.9 0.1
v -1.2 2.9 -0.2
v -1.2 3.5 0.4
v -1.2 3.5 0.1
v -1.2 3.5 -0.2
v -0.8 2.3 0.4
v -0.8 2.3 0.1
v -0.8 2.3 -0.2
v -0.8 2.9 0.4
v -0.8 2.9 0.3
v -0.8 2.9 0.1
v -0.8 2.9 -0.2
v -0.4 0.7 0.4
v -0.4 0.7 0.3
v -0.4 0.7 0.1
v -0.4 0.7 -0.2
v -0.4 1.2 0.3
v -0.4 1.2 0.1
v -0.4 1.3 0.4
v -0.4 1.3 0.1
v -0.4 1.3 -0.2
v -0.4 1.9 0.4
v -0.4 1.9 0.1
v -0.4 1.9 -0.2
v -0.4 2.3 0.4
v -0.4 2.3 0.1
v -0.4 2.3 -0.1
v -0.4 2.3 -0.2
v 1.19209e-07 1.3 0.4
v 1.19209e-07 1.3 0.1
v 1.19209e-07 1.3 -0.2
v 1.19209e-07 1.9 0.4
v 1.19209e-07 1.9 0.3
v 1.19209e-07 1.9 0.1
v 1.19209e-07 1.9 -0.2
v 0.9 2.9 0.4
v 0.9 2.9 0.1
v 0.9 2.9 -0.1
v 0.9 2.9 -0.2
v 0.9 3.5 0.4
v 0.9 3.5 0.1
v 0.9 3.5 -0.2
v 1.2 0.1 0.4
v 1.2 0.1 -0.1
v 1.2 0.1 -0.2
v 1.2 0.2 0.1
v 1.2 0.2 -0.1
v 1.2 0.7 0.4
v 1.2 0.7 0.3
v 1.2 0.7 0.1
v 1.2 0.7 -0.2
v 1.3 2.4 0.4
v 1.3 2.4 0.1
v 1.3 2.4 -0.2
v 1.3 2.9 0.4
v 1.3 2.9 0.1
v 1.3 2.9 -0.2
v 1.7 0.7 0.4
v 1.7 0.7 0.1
v 1.7 0.7 -0.2
v 1.7 1.3 0.4
v 1.7 1.3 0.1
v 1.7 1.3 -0.1
v 1.7 1.3 -0.2
v 1.7 1.9 0.4
v 1.7 1.9 0.1
v 1.7 1.9 -0.1
v 1.7 1.9 -0.2
v 1.7 2.4 0.4
v 1.7 2.4 0.1
v 1.7 2.4 -0.2
v 2.1 1.3 0.4
v 2.1 1.3 -0.1
v 2.1 1.3 -0.2
v 2.1 1.4 0.1
v 2.1 1.4 -0.1
v 2.1 1.9 0.4
v 2.1 1.9 0.1
v 2.1 1.9 -0.2
v -1.2 0.1 0.4
v -1.2 0.7 0.4
v -1.2 2.9 0.4
v -1.2 3.5 0.4
v -0.8 2.3 0.4
v -0.8 2.9 0.4
v -0.4 0.7 0.4
v -0.4 1.3 0.4
v -0.4 1.9 0.4
v -0.4 2.3 0.4
v 1.19209e-07 1.3 0.4
v 1.19209e-07 1.9 0.4
v 0.9 2.9 0.4
v 0.9 3.5 0.4
v 1.2 0.1 0.4
v 1.2 0.7 0.4
v 1.3 2.4 0.4
v 1.3 2.9 0.4
v 1.6 2.3 0.4
v 1.6 2.4 0.4
v 1.7 0.7 0.4
v 1.7 1.3 0.4
v 1.7 1.9 0.4
v 1.7 2.4 0.4
v 2.1 1.3 0.4
v 2.1 1.9 0.4
v -1.2 0.1 -0.2
v -1.2 0.7 -0.2
v -1.2 2.9 -0.2
v -1.2 3.5 -0.2
v -0.8 2.3 -0.2
v -0.8 2.9 -0.2
v -0.4 0.7 -0.2
v -0.4 1.3 -0.2
v -0.4 1.9 -0.2
v -0.4 2.3 -0.2
v 1.19209e-07 1.3 -0.2
v 1.19209e-07 1.9 -0.2
v 0.9 2.9 -0.2
v 0.9 3.5 -0.2
v 1.2 0.1 -0.2
v 1.2 0.7 -0.2
v 1.3 2.3 -0.2
v 1.3 2.4 -0.2
v 1.3 2.9 -0.2
v 1.7 0.7 -0.2
v 1.7 1.3 -0.2
v 1.7 1.9 -0.2
v 1.7 2.4 -0.2
v 2.1 1.3 -0.2
v 2.1 1.9 -0.2
v -1.2 0.1 0.4
v 1.2 0.1 0.4
v -1.2 0.1 -0.1
v 1.2 0.1 -0.1
v -1.2 0.1 -0.2
v 1.2 0.1 -0.2
v 1.2 0.7 0.4
v 1.7 0.7 0.4
v 1.2 0.7 0.3
v 1.6 0.7 0.3
v 1.2 0.7 0.1
v 1.6 0.7 0.1
v 1.7 0.7 0.1
v 1.2 0.7 -0.2
v 1.7 0.7 -0.2
v 1.7 1.3 0.4
v 2.1 1.3 0.4
v 1.7 1.3 0.1
v 1.7 1.3 -0.1
v 2.1 1.3 -0.1
v 1.7 1.3 -0.2
v 2.1 1.3 -0.2
v -0.4 1.9 0.4
v 1.19209e-07 1.9 0.4
v -0.3 1.9 0.3
v 1.19209e-07 1.9 0.3
v -0.4 1.9 0.1
v -0.3 1.9 0.1
v 1.19209e-07 1.9 0.1
v -0.4 1.9 -0.2
v 1.19209e-07 1.9 -0.2
v -0.8 2.3 0.4
v -0.4 2.3 0.4
v -0.8 2.3 0.1
v -0.7 2.3 0.1
v -0.4 2.3 0.1
v -0.7 2.3 -0.1
v -0.4 2.3 -0.1
v -0.8 2.3 -0.2
v -0.4 2.3 -0.2
v -1.2 2.9 0.4
v -0.8 2.9 0.4
v -1.1 2.9 0.3
v -0.8 2.9 0.3
v -1.2 2.9 0.1
v -1.1 2.9 0.1
v -0.8 2.9 0.1
v -1.2 2.9 -0.2
v -0.8 2.9 -0.2
v -1.2 0.7 0.4
v -0.4 0.7 0.4
v -0.4 0.7 0.3
v -1.2 0.7 0.1
v -0.4 0.7 0.1
v -1.2 0.7 -0.2
v -0.4 0.7 -0.2
v -0.4 1.3 0.4
v 1.19209e-07 1.3 0.4
v -0.4 1.3 0.1
v 1.19209e-07 1.3 0.1
v -0.4 1.3 -0.2
v 1.19209e-07 1.3 -0.2
v 1.7 1.9 0.4
v 2.1 1.9 0.4
v 1.7 1.9 0.1
v 2 1.9 0.1
v 2.1 1.9 0.1
v 1.7 1.9 -0.1
v 2 1.9 -0.1
v 1.7 1.9 -0.2
v 2.1 1.9 -0.2
v 1.3 2.4 0.4
v 1.6 2.4 0.4
v 1.7 2.4 0.4
v 1.3 2.4 0.1
v 1.6 2.4 0.1
v 1.7 2.4 0.1
v 1.3 2.4 -0.2
v 1.7 2.4 -0.2
v 0.9 2.9 0.4
v 1.3 2.9 0.4
v 0.9 2.9 0.1
v 1.2 2.9 0.1
v 1.3 2.9 0.1
v 0.9 2.9 -0.1
v 1.2 2.9 -0.1
v 0.9 2.9 -0.2
v 1.3 2.9 -0.2
v -1.2 3.5 0.4
v 0.9 3.5 0.4
v -1.2 3.5 0.1
v 0.9 3.5 0.1
v -1.2 3.5 -0.2
v 0.9 3.5 -0.2

# faces
f 4/1/1 2/1/1 1/1/1
f 5/2/1 3/2/1 2/2/1
f 5/1/1 2/1/1 4/1/1
f 6/1/1 4/1/1 1/1/1
f 7/2/1 5/2/1 4/2/1
f 7/1/1 4/1/1 6/1/1
f 8/2/1 3/2/1 5/2/1
f 8/2/1 5/2/1 7/2/1
f 12/2/1 10/2/1 9/2/1
f 13/1/1 11/1/1 10/1/1
f 13/2/1 10/2/1 12/2/1
f 14/1/1 11/1/1 13/1/1
f 18/1/1 16/1/1 15/1/1
f 19/1/1 16/1/1 18/1/1
f 20/2/1 17/2/1 16/2/1
f 20/1/1 16/1/1 19/1/1
f 21/2/1 17/2/1 20/2/1
f 26/2/1 23/2/1 22/2/1
f 26/1/1 25/1/1 24/1/1
f 26/1/1 24/1/1 23/1/1
f 27/1/1 25/1/1 26/1/1
f 28/2/1 26/2/1 22/2/1
f 28/2/1 27/2/1 26/2/1
f 29/1/1 25/1/1 27/1/1
f 29/2/1 27/2/1 28/2/1
f 30/1/1 25/1/1 29/1/1
f 34/2/1 32/2/1 31/2/1
f 35/1/1 33/1/1 32/1/1
f 35/2/1 32/2/1 34/2/1
f 36/1/1 33/1/1 35/1/1
f 37/1/1 33/1/1 36/1/1
f 41/1/1 39/1/1 38/1/1
f 42/1/1 39/1/1 41/1/1
f 43/2/1 40/2/1 39/2/1
f 43/1/1 39/1/1 42/1/1
f 44/2/1 40/2/1 43/2/1
f 45/2/2 46/2/2 49/2/2
f 47/1/2 48/1/2 50/1/2
f 49/2/2 46/2/2 50/2/2
f 46/1/2 47/1/2 50/1/2
f 50/1/2 48/1/2 51/1/2
f 52/1/2 53/1/2 55/1/2
f 53/2/2 54/2/2 56/2/2
f 55/1/2 53/1/2 56/1/2
f 52/1/2 55/1/2 57/1/2
f 57/1/2 55/1/2 58/1/2
f 55/2/2 56/2/2 59/2/2
f 58/1/2 55/1/2 59/1/2
f 56/2/2 54/2/2 60/2/2
f 59/2/2 56/2/2 60/2/2
f 61/1/2 62/1/2 64/1/2
f 62/2/2 63/2/2 65/2/2
f 64/1/2 62/1/2 65/1/2
f 65/2/2 63/2/2 66/2/2
f 67/2/2 68/2/2 70/2/2
f 68/1/2 69/1/2 71/1/2
f 70/2/2 68/2/2 71/2/2
f 71/1/2 69/1/2 72/1/2
f 72/1/2 69/1/2 73/1/2
f 74/2/2 75/2/2 78/2/2
f 76/1/2 77/1/2 79/1/2
f 78/2/2 75/2/2 79/2/2
f 75/1/2 76/1/2 79/1/2
f 79/1/2 77/1/2 80/1/2
f 81/1/2 82/1/2 84/1/2
f 82/2/2 83/2/2 85/2/2
f 84/1/2 82/1/2 85/1/2
f 81/1/2 84/1/2 86/1/2
f 84/2/2 85/2/2 87/2/2
f 86/1/2 84/1/2 87/1/2
f 85/2/2 83/2/2 88/2/2
f 87/2/2 85/2/2 88/2/2
f 94/2/3 92/2/3 91/2/3
f 95/1/3 90/1/3 89/1/3
f 98/1/3 94/1/3 93/1/3
f 99/2/3 96/2/3 95/2/3
f 100/2/3 98/2/3 97/2/3
f 101/2/3 92/2/3 94/2/3
f 101/1/3 94/1/3 98/1/3
f 102/2/3 92/2/3 101/2/3
f 103/1/3 95/1/3 89/1/3
f 104/2/3 99/2/3 95/2/3
f 104/1/3 95/1/3 103/1/3
f 105/1/3 101/1/3 98/1/3
f 106/1/3 101/1/3 105/1/3
f 107/2/3 98/2/3 100/2/3
f 107/1/3 105/1/3 98/1/3
f 108/1/3 105/1/3 107/1/3
f 109/2/3 99/2/3 104/2/3
f 110/1/3 100/1/3 99/1/3
f 110/2/3 99/2/3 109/2/3
f 111/2/3 107/2/3 100/2/3
f 111/1/3 100/1/3 110/1/3
f 111/2/3 108/2/3 107/2/3
f 112/2/3 108/2/3 111/2/3
f 113/1/3 111/1/3 110/1/3
f 114/1/3 111/1/3 113/1/3
f 117/1/4 118/1/4 120/1/4
f 115/2/4 116/2/4 121/2/4
f 119/2/4 120/2/4 124/2/4
f 121/1/4 122/1/4 125/1/4
f 123/1/4 124/1/4 126/1/4
f 120/1/4 118/1/4 127/1/4
f 124/2/4 120/2/4 127/2/4
f 127/1/4 118/1/4 128/1/4
f 115/2/4 121/2/4 129/2/4
f 121/1/4 125/1/4 130/1/4
f 129/2/4 121/2/4 130/2/4
f 126/1/4 124/1/4 131/1/4
f 124/2/4 127/2/4 131/2/4
f 131/2/4 127/2/4 132/2/4
f 132/2/4 127/2/4 133/2/4
f 130/1/4 125/1/4 134/1/4
f 125/2/4 126/2/4 135/2/4
f 134/1/4 125/1/4 135/1/4
f 126/1/4 131/1/4 136/1/4
f 135/2/4 126/2/4 136/2/4
f 131/1/4 132/1/4 136/1/4
f 136/1/4 132/1/4 137/1/4
f 135/2/4 136/2/4 138/2/4
f 138/2/4 136/2/4 139/2/4
f 142/1/5 141/1/5 140/1/5
f 143/1/5 141/1/5 142/1/5
f 144/2/5 143/2/5 142/2/5
f 145/2/5 143/2/5 144/2/5
f 148/2/5 147/2/5 146/2/5
f 149/2/5 147/2/5 148/2/5
f 150/1/5 149/1/5 148/1/5
f 151/2/5 147/2/5 149/2/5
f 151/1/5 149/1/5 150/1/5
f 152/2/5 147/2/5 151/2/5
f 153/1/5 151/1/5 150/1/5
f 153/1/5 152/1/5 151/1/5
f 154/1/5 152/1/5 153/1/5
f 157/1/5 156/1/5 155/1/5
f 158/1/5 156/1/5 157/1/5
f 159/1/5 156/1/5 158/1/5
f 160/2/5 159/2/5 158/2/5
f 161/2/5 159/2/5 160/2/5
f 164/2/5 163/2/5 162/2/5
f 165/2/5 163/2/5 164/2/5
f 166/2/5 164/2/5 162/2/5
f 167/1/5 165/1/5 164/1/5
f 167/2/5 164/2/5 166/2/5
f 168/1/5 165/1/5 167/1/5
f 169/1/5 167/1/5 166/1/5
f 169/1/5 168/1/5 167/1/5
f 170/1/5 168/1/5 169/1/5
f 173/1/5 172/1/5 171/1/5
f 174/1/5 172/1/5 173/1/5
f 175/1/5 172/1/5 174/1/5
f 176/2/5 174/2/5 173/2/5
f 176/1/5 175/1/5 174/1/5
f 177/1/5 175/1/5 176/1/5
f 178/2/5 176/2/5 173/2/5
f 178/2/5 177/2/5 176/2/5
f 179/2/5 177/2/5 178/2/5
f 182/2/5 181/2/5 180/2/5
f 183/2/5 181/2/5 182/2/5
f 184/2/5 182/2/5 180/2/5
f 185/1/5 183/1/5 182/1/5
f 185/2/5 182/2/5 184/2/5
f 186/1/5 183/1/5 185/1/5
f 187/1/5 185/1/5 184/1/5
f 187/1/5 186/1/5 185/1/5
f 188/1/5 186/1/5 187/1/5
f 189/1/6 190/1/6 191/1/6
f 189/1/6 191/1/6 192/1/6
f 192/1/6 191/1/6 193/1/6
f 192/2/6 193/2/6 194/2/6
f 194/2/6 193/2/6 195/2/6
f 196/2/6 197/2/6 198/2/6
f 198/2/6 197/2/6 199/2/6
f 198/1/6 199/1/6 200/1/6
f 200/1/6 199/1/6 201/1/6
f 202/1/6 203/1/6 204/1/6
f 204/1/6 203/1/6 205/1/6
f 205/1/6 203/1/6 206/1/6
f 204/1/6 205/1/6 207/1/6
f 205/2/6 206/2/6 208/2/6
f 207/1/6 205/1/6 208/1/6
f 207/2/6 208/2/6 209/2/6
f 208/2/6 206/2/6 210/2/6
f 209/2/6 208/2/6 210/2/6
f 211/1/6 212/1/6 214/1/6
f 212/2/6 213/2/6 215/2/6
f 214/1/6 212/1/6 215/1/6
f 215/2/6 213/2/6 216/2/6
f 214/1/6 215/1/6 217/1/6
f 215/1/6 216/1/6 217/1/6
f 217/1/6 216/1/6 218/1/6
f 219/1/6 220/1/6 221/1/6
f 221/1/6 220/1/6 222/1/6
f 222/1/6 220/1/6 223/1/6
f 221/1/6 222/1/6 224/1/6
f 222/2/6 223/2/6 225/2/6
f 224/1/6 222/1/6 225/1/6
f 224/2/6 225/2/6 226/2/6
f 225/2/6 223/2/6 227/2/6
f 226/2/6 225/2/6 227/2/6
f 228/2/6 229/2/6 230/2/6
f 230/2/6 229/2/6 231/2/6
f 230/1/6 231/1/6 232/1/6
f 232/1/6 231/1/6 233/1/6
